<?xml version="1.0" standalone="no"?>
<!DOCTYPE svg PUBLIC "-//W3C//DTD SVG 20010904//EN"
 "http://www.w3.org/TR/2001/REC-SVG-20010904/DTD/svg10.dtd">
<svg version="1.0" xmlns="http://www.w3.org/2000/svg"
 width="260.000000pt" height="260.000000pt" viewBox="0 0 260.000000 260.000000"
 preserveAspectRatio="xMidYMid meet">
<metadata>
Created by potrace 1.11, written by Peter Selinger 2001-2013
</metadata>
<g transform="translate(0.000000,260.000000) scale(0.100000,-0.100000)"
fill="#000000" stroke="none">
<path d="M1073 2449 c-104 -19 -170 -89 -197 -210 l-6 -27 -37 19 c-49 25
-144 25 -198 0 -50 -22 -108 -86 -126 -137 -11 -32 -14 -187 -14 -839 0 -743
1 -803 18 -845 43 -109 128 -195 237 -242 54 -23 62 -23 450 -26 394 -3 395
-3 440 20 26 13 55 39 69 61 15 22 35 40 50 43 134 29 251 96 301 171 56 86
60 115 60 463 0 375 -4 398 -80 472 -72 70 -170 88 -259 48 -24 -11 -44 -20
-45 -20 -2 0 -2 145 -2 323 1 249 -2 331 -13 361 -18 51 -76 115 -126 137 -49
23 -142 25 -192 4 -49 -21 -53 -19 -53 15 0 65 -58 152 -123 186 -40 21 -106
31 -154 23z m135 -133 l37 -34 3 -541 3 -541 54 0 55 0 0 430 0 430 33 37 c29
31 41 37 90 41 46 4 61 1 86 -18 63 -44 61 -27 61 -610 0 -497 -1 -531 -17
-536 -159 -49 -279 -177 -312 -332 -19 -90 -18 -92 38 -92 49 0 49 0 55 38 15
82 39 133 87 186 56 61 108 91 191 107 l55 11 7 76 c3 41 6 120 6 176 0 116
14 152 73 179 68 33 143 12 184 -50 16 -25 18 -56 18 -368 0 -331 -1 -341 -22
-381 -42 -79 -133 -134 -257 -155 -82 -14 -92 -20 -101 -59 -14 -63 -2 -61
-441 -58 -456 3 -439 0 -526 97 -82 91 -79 52 -76 932 3 727 4 777 21 802 57
87 186 89 237 4 19 -30 20 -53 20 -459 l0 -428 56 0 56 0 -2 508 c-2 279 -2
520 -1 536 1 19 14 42 40 67 36 36 43 39 95 39 50 0 60 -4 94 -34z"/>
</g>
</svg>
