<svg xmlns="http://www.w3.org/2000/svg" width="1000" height="600" viewBox="0 0 1000 600">
  <g fill="none" fill-rule="evenodd">
    <rect width="1000" height="600" fill="#FFB2B2"/>
    <path fill="#FFFFFF" d="M535.234394,335.190379 L535.234394,333.652223 L535.233741,223.962656 C535.233741,215.516896 528.318668,208.604041 519.870196,208.604041 C512.02497,208.604041 505.501982,214.564944 504.61046,222.178905 L504.61046,311.029398 L499.368169,311.029398 L494.125878,311.029398 L494.125878,223.962656 C494.125878,223.181536 494.16098,222.408364 494.229686,221.644635 L494.229686,201.236057 C494.229686,192.790297 487.314613,185.877442 478.866142,185.877442 C470.41767,185.877442 463.502597,192.790297 463.502597,201.236057 L463.502597,311.029398 L453.121824,311.029398 L453.121824,266.977155 L453.121824,223.028686 C453.121824,214.582926 446.206751,207.670072 437.758279,207.670072 C429.309808,207.670072 422.394735,214.582926 422.394735,223.028686 L422.394735,332.77014 L422.394735,382.218653 C422.394735,400.072866 437.017549,414.700048 454.791757,414.700048 L528.102737,414.700048 C531.993407,414.700048 535.407311,411.366169 535.546426,407.412331 C535.612352,404.402451 538.011454,402.039571 540.999184,402.03978 C547.329779,401.982622 556.288801,399.685504 563.139197,395.689943 C571.818534,390.627634 576.653027,383.465733 576.653027,373.812925 L576.653027,310.718075 C576.653027,302.269393 569.861812,295.463235 561.444737,295.463235 C552.717022,295.463235 545.615167,302.580716 545.615167,311.340722 L545.615167,344.237214 L544.991668,344.237214 L544.991668,344.548537 C524.91673,344.548537 508.658961,360.80109 508.658961,380.869586 L498.278188,380.869586 C498.278188,358.4152 514.113556,339.673293 535.234394,335.190379 Z M412.013961,332.77014 L412.013961,223.028686 C412.013961,208.851623 423.576665,197.292629 437.758279,197.292629 C443.50885,197.292629 448.828804,199.193229 453.121824,202.398302 L453.121824,201.236057 C453.121824,187.058993 464.684527,175.5 478.866142,175.5 C493.047756,175.5 504.61046,187.058993 504.61046,201.236057 L504.61046,203.255173 C508.885294,200.096742 514.165887,198.226599 519.870196,198.226599 C534.051811,198.226599 545.614514,209.785592 545.614514,223.962656 L545.614514,290.420799 C550.013925,287.073596 555.499372,285.085792 561.444737,285.085792 C575.600816,285.085792 587.0338,296.543933 587.0338,310.718075 L587.0338,373.812925 C587.0338,387.475101 580.027593,397.854217 568.370529,404.653315 C561.281723,408.787931 552.607533,411.389446 545.203213,412.170189 C543.762398,412.322114 542.369667,412.405095 541.04606,412.417011 C543.65945,412.417011 545.844007,410.275869 545.923364,407.698789 C545.87596,409.242814 545.62723,410.741892 545.203213,412.170189 C543.004935,419.575068 536.09528,425.077491 528.102737,425.077491 L454.791757,425.077491 C431.282966,425.077491 412.013961,405.80273 412.013961,382.218653 L412.013961,332.77014 Z"/>
  </g>
</svg>
